<?xml version="1.0" encoding="utf-8"?>
<!-- Generator: Adobe Illustrator 16.0.0, SVG Export Plug-In . SVG Version: 6.00 Build 0)  -->
<!DOCTYPE svg PUBLIC "-//W3C//DTD SVG 1.1//EN" "http://www.w3.org/Graphics/SVG/1.1/DTD/svg11.dtd">
<svg version="1.1" id="Layer_1" xmlns="http://www.w3.org/2000/svg" xmlns:xlink="http://www.w3.org/1999/xlink" x="0px" y="0px"
	 width="250px" height="250px" viewBox="0 0 250 250" enable-background="new 0 0 250 250" xml:space="preserve">
<circle fill="none" stroke="#F1F2F2" stroke-width="15" stroke-miterlimit="10" cx="125.701" cy="125" r="117.348"/>
<g>
	<g>
		<path fill="#F1F2F2" d="M65.541,132.5c40.107,0,80.214,0,120.322,0c9.673,0,9.673-15,0-15c-40.107,0-80.214,0-120.322,0
			C55.868,117.5,55.868,132.5,65.541,132.5L65.541,132.5z"/>
	</g>
</g>
<g>
	<g>
		<path fill="#F1F2F2" d="M134.684,185.161c0-40.107,0-80.214,0-120.322c0-9.673-15-9.673-15,0c0,40.107,0,80.214,0,120.322
			C119.684,194.834,134.684,194.834,134.684,185.161L134.684,185.161z"/>
	</g>
</g>
</svg>
